<svg width="30" height="30" viewBox="0 0 30 30" fill="none" xmlns="http://www.w3.org/2000/svg">
<circle cx="15" cy="15" r="15" fill="#2E3D93"/>
<path d="M18.5 14.1667H21M21 14.1667H23.5M21 14.1667V16.6667M21 14.1667V11.6667M18.5 20.8333V19.7917C18.5 18.0658 16.9008 16.6667 14.9283 16.6667H12.0717C10.0992 16.6667 8.5 18.0658 8.5 19.7917V20.8333M16 11.6667C16 12.3297 15.7366 12.9656 15.2678 13.4344C14.7989 13.9033 14.163 14.1667 13.5 14.1667C12.837 14.1667 12.2011 13.9033 11.7322 13.4344C11.2634 12.9656 11 12.3297 11 11.6667C11 11.0036 11.2634 10.3677 11.7322 9.8989C12.2011 9.43006 12.837 9.16667 13.5 9.16667C14.163 9.16667 14.7989 9.43006 15.2678 9.8989C15.7366 10.3677 16 11.0036 16 11.6667Z" stroke="white" stroke-width="1.7" stroke-linecap="round" stroke-linejoin="round"/>
</svg>
