<svg width="26" height="26" viewBox="0 0 26 26" fill="none" xmlns="http://www.w3.org/2000/svg">
<path fill-rule="evenodd" clip-rule="evenodd" d="M8.46083 2.16666H17.5403C20.8867 2.16666 22.75 4.09499 22.75 7.39916V18.59C22.75 21.9483 20.8867 23.8333 17.5403 23.8333H8.46083C5.1675 23.8333 3.25 21.9483 3.25 18.59V7.39916C3.25 4.09499 5.1675 2.16666 8.46083 2.16666ZM8.75333 7.21499V7.20416H11.9914C12.4583 7.20416 12.8375 7.58332 12.8375 8.04807C12.8375 8.52582 12.4583 8.90499 11.9914 8.90499H8.75333C8.28642 8.90499 7.90833 8.52582 7.90833 8.05999C7.90833 7.59416 8.28642 7.21499 8.75333 7.21499ZM8.75333 13.8017H17.2467C17.7125 13.8017 18.0917 13.4225 18.0917 12.9567C18.0917 12.4908 17.7125 12.1106 17.2467 12.1106H8.75333C8.28642 12.1106 7.90833 12.4908 7.90833 12.9567C7.90833 13.4225 8.28642 13.8017 8.75333 13.8017ZM8.75333 18.7525H17.2467C17.6789 18.7092 18.005 18.3397 18.005 17.9075C18.005 17.4633 17.6789 17.095 17.2467 17.0517H8.75333C8.42833 17.0192 8.11417 17.1708 7.94083 17.4525C7.7675 17.7233 7.7675 18.0808 7.94083 18.3625C8.11417 18.6333 8.42833 18.7958 8.75333 18.7525Z" fill="#B3AFAF"/>
</svg>
