<svg width="14" height="14" viewBox="0 0 14 14" fill="none" xmlns="http://www.w3.org/2000/svg">
<path fill-rule="evenodd" clip-rule="evenodd" d="M9.56653 0.667152C9.9872 0.667152 10.4072 0.726485 10.8065 0.860485C13.2672 1.66049 14.1539 4.36049 13.4132 6.72049C12.9932 7.92649 12.3065 9.02715 11.4072 9.92649C10.1199 11.1732 8.7072 12.2798 7.18653 13.2332L7.01987 13.3338L6.84653 13.2265C5.32054 12.2798 3.89987 11.1732 2.60054 9.91982C1.7072 9.02049 1.01987 7.92649 0.593202 6.72049C-0.160131 4.36049 0.726535 1.66049 3.21387 0.846485C3.4072 0.779819 3.60654 0.733152 3.80654 0.707152H3.88654C4.07387 0.679819 4.25987 0.667152 4.44654 0.667152H4.51987C4.93987 0.679819 5.34653 0.753152 5.74053 0.887152H5.77987C5.80653 0.899819 5.82653 0.913819 5.83987 0.926485C5.9872 0.973819 6.12653 1.02715 6.25987 1.10049L6.5132 1.21382C6.57442 1.24647 6.64313 1.29635 6.70251 1.33947C6.74013 1.36678 6.77401 1.39138 6.79987 1.40715C6.81075 1.41357 6.82181 1.42003 6.83295 1.42653C6.89012 1.4599 6.94966 1.49466 6.99987 1.53315C7.74053 0.967152 8.63987 0.660485 9.56653 0.667152ZM11.3399 5.46715C11.6132 5.45982 11.8465 5.24049 11.8665 4.95982V4.88049C11.8865 3.94649 11.3205 3.10049 10.4599 2.77382C10.1865 2.67982 9.88654 2.82715 9.78654 3.10715C9.6932 3.38715 9.83987 3.69382 10.1199 3.79315C10.5472 3.95315 10.8332 4.37382 10.8332 4.83982V4.86049C10.8205 5.01315 10.8665 5.16049 10.9599 5.27382C11.0532 5.38715 11.1932 5.45315 11.3399 5.46715Z" fill="white"/>
</svg>
