<svg width="24" height="23" viewBox="0 0 24 23" fill="none" xmlns="http://www.w3.org/2000/svg">
<path d="M23.375 10.8333V17.8333C23.4435 18.4244 23.3775 19.0234 23.1818 19.5854C22.9862 20.1473 22.666 20.6578 22.2452 21.0786C21.8245 21.4993 21.314 21.8195 20.752 22.0152C20.1901 22.2108 19.5911 22.2768 19 22.2083H5C4.4089 22.2768 3.80996 22.2108 3.24798 22.0152C2.686 21.8195 2.17553 21.4993 1.75476 21.0786C1.33399 20.6578 1.0138 20.1473 0.818164 19.5854C0.622524 19.0234 0.55649 18.4244 0.625002 17.8333V6.16667C0.55649 5.57556 0.622524 4.97662 0.818164 4.41464C1.0138 3.85266 1.33399 3.34219 1.75476 2.92142C2.17553 2.50065 2.686 2.18047 3.24798 1.98483C3.80996 1.78919 4.4089 1.72316 5 1.79167H14.3333C14.5654 1.79167 14.788 1.88385 14.9521 2.04795C15.1161 2.21204 15.2083 2.4346 15.2083 2.66667C15.2083 2.89873 15.1161 3.12129 14.9521 3.28539C14.788 3.44948 14.5654 3.54167 14.3333 3.54167H5C3.16017 3.54167 2.375 4.32683 2.375 6.16667V16.9583L5.33834 13.995C5.55861 13.7764 5.85635 13.6538 6.16667 13.6538C6.47699 13.6538 6.77473 13.7764 6.995 13.995L8.09167 15.0917C8.20071 15.1985 8.34731 15.2584 8.5 15.2584C8.65269 15.2584 8.79929 15.1985 8.90834 15.0917L14.6717 9.32833C14.8919 9.10976 15.1897 8.9871 15.5 8.9871C15.8103 8.9871 16.1081 9.10976 16.3283 9.32833L21.625 14.625V10.8333C21.625 10.6013 21.7172 10.3787 21.8813 10.2146C22.0454 10.0505 22.2679 9.95833 22.5 9.95833C22.7321 9.95833 22.9546 10.0505 23.1187 10.2146C23.2828 10.3787 23.375 10.6013 23.375 10.8333ZM7.32517 7.04167C6.93782 7.04275 6.56674 7.19752 6.29342 7.47199C6.02009 7.74646 5.86688 8.11819 5.86742 8.50554C5.86796 8.89288 6.02221 9.26418 6.2963 9.53789C6.57039 9.81159 6.9419 9.96533 7.32925 9.96533C7.7166 9.96533 8.08811 9.81159 8.3622 9.53789C8.63629 9.26418 8.79054 8.89288 8.79108 8.50554C8.79163 8.11819 8.63841 7.74646 8.36509 7.47199C8.09177 7.19752 7.72068 7.04275 7.33334 7.04167H7.32517ZM19.6183 3.86833L19.875 3.61283V6.16667C19.875 6.39873 19.9672 6.62129 20.1313 6.78539C20.2954 6.94948 20.5179 7.04167 20.75 7.04167C20.9821 7.04167 21.2046 6.94948 21.3687 6.78539C21.5328 6.62129 21.625 6.39873 21.625 6.16667V3.61283L21.8817 3.86833C22.0475 4.02289 22.2669 4.10704 22.4936 4.10304C22.7203 4.09904 22.9366 4.00721 23.0969 3.84689C23.2572 3.68658 23.349 3.47029 23.353 3.24361C23.357 3.01693 23.2729 2.79754 23.1183 2.63167L21.3683 0.881667C21.2041 0.718093 20.9818 0.626251 20.75 0.626251C20.5182 0.626251 20.2959 0.718093 20.1317 0.881667L18.3817 2.63167C18.2271 2.79754 18.143 3.01693 18.147 3.24361C18.151 3.47029 18.2428 3.68658 18.4031 3.84689C18.5634 4.00721 18.7797 4.09904 19.0064 4.10304C19.2331 4.10704 19.4525 4.02289 19.6183 3.86833Z" fill="#0385FE"/>
</svg>
