<svg width="29" height="29" viewBox="0 0 29 29" fill="none" xmlns="http://www.w3.org/2000/svg">
<path fill-rule="evenodd" clip-rule="evenodd" d="M9.07649 3.04773H19.9615C23.9282 3.04773 26.1915 5.28773 26.1915 9.26606V20.1627C26.1915 24.1177 23.9398 26.3811 19.9732 26.3811H9.07649C5.09815 26.3811 2.85815 24.1177 2.85815 20.1627V9.26606C2.85815 5.28773 5.09815 3.04773 9.07649 3.04773ZM15.4815 15.6827H18.7948C19.3315 15.6711 19.7632 15.2394 19.7632 14.7027C19.7632 14.1661 19.3315 13.7344 18.7948 13.7344H15.4815V10.4444C15.4815 9.90773 15.0498 9.47606 14.5132 9.47606C13.9765 9.47606 13.5448 9.90773 13.5448 10.4444V13.7344H10.2432C9.98649 13.7344 9.74149 13.8394 9.55482 14.0144C9.37982 14.2011 9.27482 14.4449 9.27482 14.7027C9.27482 15.2394 9.70649 15.6711 10.2432 15.6827H13.5448V18.9844C13.5448 19.5211 13.9765 19.9527 14.5132 19.9527C15.0498 19.9527 15.4815 19.5211 15.4815 18.9844V15.6827Z" fill="white"/>
</svg>
