<svg width="30" height="30" viewBox="0 0 30 30" fill="none" xmlns="http://www.w3.org/2000/svg">
<circle cx="15" cy="15" r="15" fill="#2E3D93"/>
<path d="M15.75 20.25C15.75 20.775 15.8475 21.2775 16.0125 21.75H9.75C9.35218 21.75 8.97064 21.592 8.68934 21.3107C8.40804 21.0294 8.25 20.6478 8.25 20.25V9.75C8.25 8.925 8.925 8.25 9.75 8.25H20.25C20.6478 8.25 21.0294 8.40804 21.3107 8.68934C21.592 8.97064 21.75 9.35218 21.75 9.75V16.0125C21.2775 15.8475 20.775 15.75 20.25 15.75V9.75H9.75V20.25H15.75ZM16.47 15.2175L14.4075 17.8725L12.9375 16.1025L10.875 18.75H16.0125C16.3125 17.91 16.8525 17.1825 17.55 16.6575L16.47 15.2175ZM21 19.5V17.25H19.5V19.5H17.25V21H19.5V23.25H21V21H23.25V19.5H21Z" fill="white"/>
</svg>
