<svg width="28" height="28" viewBox="0 0 28 28" fill="none" xmlns="http://www.w3.org/2000/svg">
<path fill-rule="evenodd" clip-rule="evenodd" d="M10.0467 4C10.5017 4 10.8711 4.36623 10.8711 4.81838C10.8711 5.26946 10.5028 5.63569 10.0467 5.63569L8.28192 5.63676C6.81726 5.63891 5.62559 6.82137 5.62559 8.27448V10.3108C5.62559 10.7618 5.25509 11.1292 4.80009 11.1292C4.34509 11.1292 3.97567 10.7618 3.97567 10.3108V8.27448C3.97567 5.9203 5.90726 4.00322 8.28084 4.00107L10.0456 4H10.0467ZM17.8173 4.00032H19.5431C21.9232 4.00032 23.858 5.91847 23.858 8.27803V10.3111C23.858 10.7622 23.4897 11.1295 23.0336 11.1295C22.5786 11.1295 22.2092 10.7622 22.2092 10.3111V8.27803C22.2092 6.82062 21.0131 5.63494 19.5431 5.63494H17.8173C17.3623 5.63494 16.9929 5.26978 16.9929 4.8187C16.9929 4.36655 17.3623 4.00032 17.8173 4.00032ZM16.9094 8.0991H10.925C9.55571 8.11306 8.45504 9.2225 8.46696 10.5811V11.9451C8.47021 12.104 8.59913 12.234 8.75946 12.2393H19.0728C19.2342 12.235 19.3631 12.1051 19.3685 11.9451V10.5811C19.3696 9.92489 19.114 9.29445 18.6525 8.82512C18.1942 8.36008 17.5648 8.0991 16.9094 8.0991ZM2.8255 13.9023H25.0089C25.4639 13.9023 25.8333 14.2685 25.8333 14.7207C25.8333 15.1718 25.4639 15.5369 25.0089 15.5369H23.8584V19.4355C23.8584 21.7961 21.9225 23.7143 19.5435 23.7143H17.8177C17.3617 23.7143 16.9923 23.3481 16.9923 22.8959C16.9923 22.4448 17.3617 22.0786 17.8177 22.0786H19.5435C21.0136 22.0786 22.2096 20.894 22.2096 19.4355V15.5369H19.368V16.6227C19.3788 17.9813 18.2793 19.0918 16.9088 19.1047H10.9245C9.55517 19.0918 8.45558 17.9813 8.46642 16.6227V15.5369H5.62483V19.4398C5.62483 20.8929 6.81758 22.0754 8.28333 22.0775L10.047 22.0786C10.502 22.0786 10.8714 22.4448 10.8714 22.8959C10.8703 23.3481 10.502 23.7143 10.0459 23.7143L8.28117 23.7132C5.90758 23.7111 3.97492 21.794 3.97492 19.4398V15.5369H2.8255C2.3705 15.5369 2 15.1718 2 14.7207C2 14.2685 2.3705 13.9023 2.8255 13.9023Z" fill="#0385FE"/>
</svg>
