<svg width="27" height="20" viewBox="0 0 27 20" fill="none" xmlns="http://www.w3.org/2000/svg">
<path fill-rule="evenodd" clip-rule="evenodd" d="M18.376 5.31928C18.376 8.06058 16.1906 10.2587 13.4652 10.2587C10.7397 10.2587 8.55432 8.06058 8.55432 5.31928C8.55432 2.57693 10.7397 0.380951 13.4652 0.380951C16.1906 0.380951 18.376 2.57693 18.376 5.31928ZM13.4652 19.0476C9.4621 19.0476 6.04405 18.413 6.04405 15.8745C6.04405 13.3349 9.44017 12.6772 13.4652 12.6772C17.4682 12.6772 20.8862 13.3118 20.8862 15.8514C20.8862 18.3899 17.4901 19.0476 13.4652 19.0476ZM20.4746 5.40838C20.4746 6.80582 20.0577 8.10765 19.3265 9.18988C19.2513 9.30125 19.3181 9.4515 19.4508 9.47462C19.6336 9.50614 19.8227 9.524 20.0149 9.52925C21.9318 9.57969 23.6523 8.3388 24.1276 6.47064C24.8317 3.69572 22.7644 1.2045 20.1319 1.2045C19.8457 1.2045 19.572 1.23497 19.3056 1.2896C19.269 1.29801 19.2304 1.31482 19.2095 1.34739C19.1844 1.38732 19.2032 1.44091 19.2283 1.47558C20.0191 2.59038 20.4746 3.95 20.4746 5.40838ZM23.6492 11.4789C24.9372 11.7322 25.7844 12.2491 26.1354 13.0004C26.4321 13.6171 26.4321 14.3327 26.1354 14.9484C25.5985 16.1136 23.8675 16.4877 23.1948 16.5843C23.0559 16.6054 22.9441 16.4845 22.9587 16.3448C23.3024 13.116 20.5686 11.5851 19.8614 11.2331C19.8311 11.2173 19.8248 11.1932 19.8279 11.1784C19.83 11.1679 19.8426 11.1511 19.8655 11.148C21.3959 11.1196 23.0412 11.3297 23.6492 11.4789ZM7.03458 9.52915C7.22679 9.5239 7.41483 9.50708 7.59868 9.47451C7.73135 9.4514 7.79821 9.30115 7.72299 9.18977C6.99175 8.10754 6.57494 6.80572 6.57494 5.40827C6.57494 3.94989 7.0304 2.59027 7.82119 1.47547C7.84626 1.4408 7.86402 1.38721 7.83999 1.34729C7.8191 1.31577 7.7794 1.2979 7.74389 1.2895C7.47646 1.23486 7.20276 1.20439 6.91653 1.20439C4.28405 1.20439 2.21671 3.69562 2.92184 6.47054C3.39715 8.3387 5.11767 9.57958 7.03458 9.52915ZM7.22105 11.1778C7.22418 11.1936 7.21791 11.2167 7.18866 11.2335C6.4804 11.5855 3.74658 13.1164 4.09027 16.3441C4.1049 16.4849 3.99416 16.6047 3.85523 16.5848C3.18248 16.4881 1.45152 16.114 0.914575 14.9488C0.616854 14.332 0.616854 13.6176 0.914575 13.0008C1.26557 12.2495 2.11173 11.7326 3.39977 11.4783C4.00879 11.3302 5.65305 11.12 7.18448 11.1484C7.20747 11.1515 7.21896 11.1684 7.22105 11.1778Z" fill="#0385FE"/>
</svg>
